<svg width="513" height="614" viewBox="0 0 513 614" fill="none" xmlns="http://www.w3.org/2000/svg">
<path d="M42.7786 92.576C-13.5175 205.3 -14.9969 468.32 42.7791 581.043C100.555 693.766 505 487.107 505 336.809C505 186.512 99.0748 -20.1476 42.7786 92.576Z" fill="#4B7BEC"/>
<g>
<path d="M387.809 46L339.714 270.893C325.526 262.717 309.174 257.667 291.619 257.667C238.474 257.667 195.428 300.712 195.428 353.857C195.428 407.002 238.474 450.048 291.619 450.048C344.764 450.048 387.809 407.002 387.809 353.857L420 104L513 112V80L387.809 46Z" fill="#FBFBFB"/>
<path d="M340.203 270.997L388.188 46.6209L512.5 80.3823V111.455L420.043 103.502L419.565 103.461L419.504 103.936L387.313 353.793L387.309 353.825V353.857C387.309 406.726 344.488 449.548 291.619 449.548C238.75 449.548 195.928 406.726 195.928 353.857C195.928 300.988 238.75 258.167 291.619 258.167C309.076 258.167 325.343 263.188 339.464 271.326L340.059 271.669L340.203 270.997Z" stroke="black" stroke-opacity="0.15"/>
</g>
<defs>
</defs>
</svg>
