<svg fill="none" xmlns="http://www.w3.org/2000/svg" viewBox="0 0 505 554"><path d="M42.7786 32.576c-56.2961 112.724-57.7755 375.744.0005 488.467C100.555 633.766 505 427.107 505 276.809 505 126.512 99.0748-80.1476 42.7786 32.576z" fill="url(#lg)"/><g filter="url(#ds)"><path d="M267.36 125l-35.59 166.423c-10.499-6.05-22.6-9.787-35.59-9.787-39.327 0-71.18 31.854-71.18 71.182S156.853 424 196.18 424c39.327 0 71.18-31.854 71.18-71.182l23.821-184.897 68.819 5.92V150.16L267.36 125z" fill="#FBFBFB"/></g><defs><linearGradient id="lg" x1="78" y1="39" x2="271" y2="472.5" gradientUnits="userSpaceOnUse"><stop stop-color="#FC5C65"/><stop offset="1" stop-color="#FD9644"/></linearGradient><filter id="ds" x="125" y="125" width="238" height="302" filterUnits="userSpaceOnUse" color-interpolation-filters="sRGB"><feFlood flood-opacity="0" result="BackgroundImageFix"/><feColorMatrix in="SourceAlpha" values="0 0 0 0 0 0 0 0 0 0 0 0 0 0 0 0 0 0 127 0"/><feOffset dx="3" dy="3"/><feColorMatrix values="0 0 0 0 0.495833 0 0 0 0 0.495833 0 0 0 0 0.495833 0 0 0 0.22 0"/><feBlend in2="BackgroundImageFix" result="effect1_dropShadow"/><feBlend in="SourceGraphic" in2="effect1_dropShadow" result="shape"/></filter></defs></svg>